# xmcd
#
# Track frame offsets: 
#        188
#        27468
#        44000
#        65095
#        90470
#        112663
#        127813
#        145683
#        166193
#
# Disc length: 2402 seconds
#
# Revision: 8
# Processed by: cddbd v1.5.2PL0 Copyright (c) Steve Scherf et al.
# Submitted via: ExactAudioCopy v1.3
#
DISCID=70096009
DTITLE=Taj Mahal and The International Rhythm Band - Taj Mahal Live and Di
DTITLE=rect
DYEAR=1990
DGENRE=Reggae
TTITLE0=Jorge Ben
TTITLE1=Reggae Nr. 1
TTITLE2=You're Gonna Need Somebody
TTITLE3=Little Brown Dog
TTITLE4=Take a Giant Step
TTITLE5=L-O-V-E, Love
TTITLE6=And Who
TTITLE7=Suva Serenade
TTITLE8=Airplay
EXTD=YEAR: 1990
EXTT0=
EXTT1=
EXTT2=
EXTT3=
EXTT4=
EXTT5=
EXTT6=
EXTT7=
EXTT8=
PLAYORDER=
